<svg width="20" height="20" viewBox="0 0 20 20" fill="none" xmlns="http://www.w3.org/2000/svg">
  <g clip-path="url(#clip0_52560_66917)">
    <path d="M20 10L20 0L0 -8.74228e-07L-4.37114e-07 10L20 10Z" fill="#00F0FF" fill-opacity="0.05" />
    <path d="M0.1 0.0999991L19.9 0.1L19.9 9.9L0.0999999 9.9L0.1 0.0999991Z" stroke="#00F0FF"
      stroke-opacity="0.5" stroke-width="0.2" />
    <path d="M20 20L20 10L0 10L-4.37114e-07 20L20 20Z" fill="#46464A" fill-opacity="0.05" />
    <path d="M0.1 10.1L19.9 10.1L19.9 19.9L0.0999999 19.9L0.1 10.1Z" stroke="#46464A"
      stroke-opacity="0.5" stroke-width="0.2" />
    <path fill-rule="evenodd" clip-rule="evenodd"
      d="M3 12L0 10L3 8V9H9V8H11V9H17V8L20 10L17 12V11H11V12H9V11H3V12Z" fill="#ACAAAF" />
  </g>
  <defs>
    <clipPath id="clip0_52560_66917">
      <rect width="20" height="20" fill="white" transform="translate(0 20) rotate(-90)" />
    </clipPath>
  </defs>
</svg>