<svg width="32" height="30" viewBox="0 0 32 30" fill="none" xmlns="http://www.w3.org/2000/svg">
<path d="M6.9668 7.0166L23.0336 9.69995V20.3L6.9668 22.9834V7.0166Z" fill="#646464" fill-opacity="0.05"/>
<path d="M7.2168 7.31182L7.4277 7.34704L7.46888 7.10046L8.47306 7.26817L8.43187 7.51475L9.43605 7.68246L9.47723 7.43587L10.4814 7.60358L10.4402 7.85017L11.4444 8.01788L11.4856 7.77129L12.4897 7.939L12.4486 8.18559L13.4527 8.3533L13.4939 8.10671L14.4981 8.27442L14.4569 8.52101L15.4611 8.68872L15.5023 8.44213L16.5064 8.60984L16.4653 8.85642L17.4694 9.02413L17.5106 8.77755L18.5148 8.94526L18.4736 9.19184L19.4778 9.35955L19.519 9.11297L20.5231 9.28068L20.4819 9.52726L21.4861 9.69497L21.5273 9.44839L22.5315 9.6161L22.4903 9.86268L22.7836 9.91166V10.23H23.0336V11.29H22.7836V12.35H23.0336V13.41H22.7836V14.47H23.0336V15.53H22.7836V16.59H23.0336V17.65H22.7836V18.71H23.0336V19.77H22.7836V20.0883L22.4903 20.1373L22.5315 20.3839L21.5273 20.5516L21.4861 20.305L20.4819 20.4727L20.5231 20.7193L19.519 20.887L19.4778 20.6404L18.4736 20.8081L18.5148 21.0547L17.5106 21.2224L17.4694 20.9758L16.4653 21.1435L16.5064 21.3901L15.5023 21.5578L15.4611 21.3112L14.4569 21.479L14.4981 21.7255L13.4939 21.8932L13.4527 21.6467L12.4486 21.8144L12.4897 22.061L11.4856 22.2287L11.4444 21.9821L10.4402 22.1498L10.4814 22.3964L9.47723 22.5641L9.43604 22.3175L8.43187 22.4852L8.47306 22.7318L7.46888 22.8995L7.4277 22.6529L7.2168 22.6881V22.4844H6.9668V21.4865H7.2168V20.4886H6.9668V19.4906H7.2168V18.4927H6.9668V17.4948H7.2168V16.4969H6.9668V15.4989H7.2168V14.501H6.9668V13.5031H7.2168V12.5052H6.9668V11.5073H7.2168V10.5093H6.9668V9.51141H7.2168V8.51349H6.9668V7.51556H7.2168V7.31182Z" stroke="#515151" stroke-opacity="0.5" stroke-width="0.5" stroke-linejoin="round" stroke-dasharray="1 1"/>
</svg>
