<svg width="30" height="30" viewBox="0 0 30 30" fill="none" xmlns="http://www.w3.org/2000/svg">
<path d="M6.9668 7.0166L23.0336 9.69995V20.3L6.9668 22.9834V7.0166Z" fill="#F4F5F5"/>
<path d="M7.2168 7.3168L22.7669 9.91682V20.1002L7.2168 22.6836V7.3168ZM6.7168 6.73346V23.2836L23.2669 20.5169V9.48348L6.7168 6.7168V6.73346Z" fill="#646464"/>
<path d="M8.36652 21.8003H5.4165V24.7503H8.36652V21.8003Z" fill="#F4F5F5"/>
<path d="M8.11701 22.0503V24.5003H5.667V22.0503H8.11701ZM8.61701 21.5503H5.16699V25.0003H8.61701V21.5503Z" fill="#646464"/>
<path d="M24.7498 19.0503H21.7998V22.0003H24.7498V19.0503Z" fill="#F4F5F5"/>
<path d="M24.4998 19.3003V21.7503H22.0498V19.3003H24.4998ZM24.9998 18.8003H21.5498V22.2503H24.9998V18.8003Z" fill="#646464"/>
<path d="M8.20002 5.25H5.25V8.20002H8.20002V5.25Z" fill="#F4F5F5"/>
<path d="M7.95002 5.5V7.95002H5.5V5.5H7.95002ZM8.45002 5H5V8.45002H8.45002V5Z" fill="#646464"/>
<path d="M24.7498 8.0166H21.7998V10.9666H24.7498V8.0166Z" fill="#F4F5F5"/>
<path d="M24.4998 8.2666V10.7166H22.0498V8.2666H24.4998ZM24.9998 7.7666H21.5498V11.2H24.9998V7.7666Z" fill="#646464"/>
<path d="M24 30L30 24V30H24Z" fill="#646464"/>
</svg>
