<svg width="32" height="32" viewBox="0 0 20 20" fill="none" xmlns="http://www.w3.org/2000/svg">
<path fill-rule="evenodd" clip-rule="evenodd" d="M12.4919 1.70723C11.7011 1.38116 10.8504 1.22634 9.99563 1.25293C9.14496 1.24099 8.30106 1.40578 7.5171 1.7369C6.73314 2.06802 6.02614 2.5583 5.44065 3.17683C4.85517 3.79535 4.40389 4.52871 4.11528 5.33069C3.82666 6.13266 3.70696 6.98585 3.76373 7.83648C3.76373 11.8878 8.76452 18.125 9.99692 18.125C11.2293 18.125 16.2288 12.059 16.2288 7.83648C16.3002 6.98251 16.1906 6.12306 15.9073 5.31452C15.6239 4.50597 15.1731 3.76661 14.5845 3.14493C13.9959 2.52324 13.2828 2.0333 12.4919 1.70723ZM11.875 7.5C11.875 8.53553 11.0355 9.375 10 9.375C8.96447 9.375 8.125 8.53553 8.125 7.5C8.125 6.46447 8.96447 5.625 10 5.625C11.0355 5.625 11.875 6.46447 11.875 7.5Z" fill="white"/>
</svg>
