<svg width="32" height="32" viewBox="0 0 32 32" fill="none" xmlns="http://www.w3.org/2000/svg">
<path fill-rule="evenodd" clip-rule="evenodd" d="M19.9871 2.73157C18.7217 2.20986 17.3606 1.96215 15.993 2.00468C14.6319 1.98559 13.2817 2.24925 12.0274 2.77904C10.773 3.30884 9.64183 4.09328 8.70505 5.08292C7.76827 6.07256 7.04623 7.24594 6.58444 8.5291C6.12266 9.81226 5.93114 11.1774 6.02196 12.5384C6.02196 19.0205 14.0232 29 15.9951 29C17.9669 29 25.9661 19.2945 25.9661 12.5384C26.0804 11.172 25.905 9.7969 25.4516 8.50323C24.9982 7.20956 24.2769 6.02657 23.3352 5.03188C22.3934 4.03719 21.2525 3.25328 19.9871 2.73157ZM19 12C19 13.6569 17.6569 15 16 15C14.3431 15 13 13.6569 13 12C13 10.3431 14.3431 9 16 9C17.6569 9 19 10.3431 19 12Z" fill="#121212"/>
<circle cx="16" cy="12" r="3" fill="white"/>
</svg>
