<svg width="20" height="20" viewBox="0 0 20 20" fill="none" xmlns="http://www.w3.org/2000/svg">
<path opacity="0.05" d="M19.9997 0L0 0L0 20L19.9997 20L19.9997 0Z" fill="#FF9120"/>
<path d="M0 0L0 4.18L4.17993 4.18L4.17993 0L0 0ZM3.73994 3.74L0.439993 3.74L0.439993 0.44L3.73994 0.44L3.73994 3.74Z" fill="#FF9120"/>
<path d="M3.44971 3.44998L3.44971 0.72998L0.729749 0.72998L0.729749 3.44998L3.44971 3.44998Z" fill="#FF9120"/>
<path d="M15.8198 0V4.18L19.9998 4.18V0L15.8198 0ZM19.5598 3.74L16.2598 3.74V0.44L19.5598 0.44V3.74Z" fill="#FF9120"/>
<path d="M19.27 3.44998V0.72998L16.5501 0.72998V3.44998L19.27 3.44998Z" fill="#FF9120"/>
<path d="M0 15.8101L0 19.9901H4.17993L4.17993 15.8101H0ZM3.73994 19.5501H0.439993L0.439993 16.2501H3.73994L3.73994 19.5501Z" fill="#FF9120"/>
<path d="M3.44971 19.26L3.44971 16.54H0.72975L0.72975 19.26H3.44971Z" fill="#FF9120"/>
<path d="M15.8198 15.8101V19.9901H19.9998V15.8101H15.8198ZM19.5598 19.5501H16.2598V16.2501H19.5598V19.5501Z" fill="#FF9120"/>
<path d="M19.27 19.26V16.54H16.5501V19.26H19.27Z" fill="#FF9120"/>
<path opacity="0.3" d="M10 15.373L12.96 10.0003L10 4.62759L7.04005 10.0003L10 15.373ZM10 5.77111L12.34 10.0185L10 14.2658L7.66004 10.0185L10 5.77111Z" fill="#646464"/>
<path d="M12.96 10L10 4.62727L7.04005 10L7.66004 10L10 5.75264L12.34 10L12.96 10Z" fill="#FF9120"/>
<path opacity="0.3" d="M10.0024 6.50894L8.0791 10L10.0024 13.4911L11.9257 10L10.0024 6.50894Z" fill="#646464"/>
<path d="M8.07998 10L9.99995 6.51499L11.9199 10L8.07998 10Z" fill="#FF9120"/>
<path fill-rule="evenodd" clip-rule="evenodd" d="M10.4243 9.71726C10.4633 9.67821 10.4633 9.61489 10.4243 9.57584C10.3852 9.53679 10.3219 9.53679 10.2828 9.57584L10 9.85868L9.71716 9.57584C9.6781 9.53679 9.61479 9.53679 9.57574 9.57584C9.53668 9.61489 9.53668 9.67821 9.57574 9.71726L9.85858 10.0001L9.57574 10.2829C9.53668 10.322 9.53668 10.3853 9.57574 10.4244C9.61479 10.4634 9.6781 10.4634 9.71716 10.4244L10 10.1415L10.2828 10.4244C10.3219 10.4634 10.3852 10.4634 10.4243 10.4244C10.4633 10.3853 10.4633 10.322 10.4243 10.2829L10.1414 10.0001L10.4243 9.71726Z" fill="#FF0000"/>
</svg>
