<svg width="30" height="30" viewBox="0 0 30 30" fill="none" xmlns="http://www.w3.org/2000/svg">
<path d="M24.75 5.25H5.25V24.75H24.75V5.25Z" fill="#646464" fill-opacity="0.05"/>
<path fill-rule="evenodd" clip-rule="evenodd" d="M24.5 10.1131V5.5H5.5V17.2698L24.5 10.1131ZM24.5 11.0036L23.05 11.5497V24.5H24.5V11.0036ZM23.05 25H25V5H5V25H8.90015V25H9.40015V25H10.85V25.0001H11.35V25H14.7501V25H15.2501V25H16.7001V25.0001H17.2001V25H20.6002V25.0001H21.1002V25H22.55V25H23.05V25ZM22.55 24.5V11.7381L21.1002 12.2842V24.5H22.55ZM20.6002 24.5V12.4725L19.1499 13.0188V24.5H20.6002ZM18.6499 24.5V13.2071L17.2001 13.7532V24.5H18.6499ZM16.7001 24.5V13.9416L15.2501 14.4877V24.5H16.7001ZM14.7501 24.5V14.6761L13.2999 15.2223V24.5H14.7501ZM12.7999 24.5V15.4107L11.35 15.9568V24.5H12.7999ZM10.85 24.5V16.1451L9.40015 16.6913V24.5H10.85ZM8.90015 24.5V16.8796L7.44983 17.4259V24.5H8.90015ZM6.94983 24.5V17.6142L5.5 18.1603V24.5H6.94983Z" fill="#646464" fill-opacity="0.5"/>
</svg>
