<svg width="30" height="30" viewBox="0 0 30 30" fill="none" xmlns="http://www.w3.org/2000/svg">
<path d="M24.75 5.25H5.25V24.75H24.75V5.25Z" fill="#646464" fill-opacity="0.05"/>
<path d="M24.5 5.5V24.5H5.5V5.5H24.5ZM25 5H5V25H25V5Z" fill="#7EBEFF" fill-opacity="0.5"/>
<path d="M20.849 7.18359C21.999 7.18359 22.9323 8.11693 22.9323 9.26693C22.9323 10.4169 21.999 11.3503 20.849 11.3503C19.699 11.3503 18.7656 10.4169 18.7656 9.26693C18.7656 8.11693 19.699 7.18359 20.849 7.18359ZM20.849 6.68359C19.4156 6.68359 18.2656 7.85026 18.2656 9.26693C18.2656 10.6836 19.4323 11.8503 20.849 11.8503C22.2656 11.8503 23.4323 10.6836 23.4323 9.26693C23.4323 7.85026 22.2656 6.68359 20.849 6.68359V6.68359Z" fill="#7EBEFF" fill-opacity="0.5"/>
<path fill-rule="evenodd" clip-rule="evenodd" d="M18.1334 13.4665C18.1167 13.5331 18.2334 13.6165 18.2334 13.6165H18.2167C18.2667 13.6331 18.3001 13.6165 18.3334 13.5831C18.3501 13.5665 18.3667 13.5165 18.3667 13.5165L18.8167 11.4498C18.8334 11.3998 18.8167 11.3665 18.7834 11.3331C18.7501 11.2998 18.6667 11.2998 18.6667 11.2998L16.6167 11.7665C16.5501 11.7831 16.5167 11.8498 16.5167 11.9165C16.5334 11.9831 16.6667 12.0165 16.6667 12.0165L18.2841 11.6555L11.3907 18.6114C10.9206 18.1322 10.2674 17.8331 9.55013 17.8331C8.1168 17.8331 6.9668 18.9998 6.9668 20.4165C6.9668 21.8331 8.13346 22.9998 9.55013 22.9998C10.9668 22.9998 12.1335 21.8331 12.1335 20.4165C12.1335 19.8242 11.9296 19.2756 11.5887 18.8377L18.4704 11.8936L18.1334 13.4665ZM9.55013 18.3331C10.7001 18.3331 11.6335 19.2665 11.6335 20.4165C11.6335 21.5665 10.7001 22.4998 9.55013 22.4998C8.40013 22.4998 7.4668 21.5665 7.4668 20.4165C7.4668 19.2665 8.40013 18.3331 9.55013 18.3331Z" fill="#7EBEFF" fill-opacity="0.5"/>
</svg>
