<svg width="100" height="28" viewBox="0 0 100 28" fill="none" xmlns="http://www.w3.org/2000/svg">
<g clip-path="url(#clip0_52775_53378)">
<path d="M42.6455 2.87054C42.6455 3.90575 43.0501 5.3726 45.7062 7.8115C46.825 8.8397 47.2612 9.84334 47.1275 10.7277C47.0009 11.5383 46.3641 12.2121 45.2348 12.7384C43.8557 13.3771 43.6024 13.7456 43.6095 14.2053C43.6165 14.4334 43.7009 14.5457 43.8557 14.7492C44.0739 15.044 44.3799 15.4475 44.3447 16.2266C44.3131 17.0021 43.5884 17.3846 43.0079 17.6864C42.438 17.9847 42.0932 18.1882 42.0827 18.4865C42.0721 18.7392 42.2163 18.9146 42.4802 19.2059C42.7757 19.5358 43.1486 19.9499 43.1486 20.6026C43.1486 21.4237 42.5892 21.915 42.1389 22.3081C41.6675 22.7221 41.2594 23.0801 41.2594 23.7925C41.2594 25.8804 43.898 28 48.9428 28C53.9877 28 56.6297 25.8839 56.6297 23.7925C56.6297 23.0801 56.2216 22.7221 55.7467 22.3081C55.2964 21.915 54.7335 21.4237 54.7335 20.6026C54.7335 19.9464 55.1029 19.5358 55.4019 19.2059C55.6622 18.9182 55.81 18.7392 55.7994 18.4865C55.7854 18.1882 55.4406 17.9847 54.8742 17.6864C54.2867 17.3811 53.5655 17.0021 53.5338 16.2266C53.5022 15.4475 53.8047 15.044 54.0264 14.7492C54.1776 14.5457 54.2656 14.4299 54.2691 14.2053C54.2832 13.7456 54.0228 13.3771 52.6438 12.7384C51.5145 12.2156 50.8777 11.5383 50.7511 10.7277C50.6174 9.84334 51.0642 8.82216 52.1829 7.79396C54.8425 5.35506 55.233 3.90575 55.233 2.87054C55.233 2.01078 53.0906 0 48.9393 0C44.788 0 42.6455 2.01429 42.6455 2.87054Z" fill="white"/>
<path d="M56.2814 5.12352C56.2814 5.82185 56.8408 6.39034 57.5198 6.39034C58.1988 6.39034 58.7581 5.82185 58.7581 5.12352C58.7581 4.42518 58.2023 3.85669 57.5198 3.85669C56.8373 3.85669 56.2814 4.42518 56.2814 5.12352Z" fill="white"/>
<path d="M39.4934 5.16914C39.4934 5.74465 40.1231 6.2184 41.1011 6.40088C41.2841 6.05697 41.3896 5.63587 41.3896 5.19371C41.3896 4.75155 41.277 4.29535 41.073 3.94092C40.109 4.12691 39.4899 4.60065 39.4899 5.16914H39.4934Z" fill="white"/>
<path d="M3.18734 18.3041L0 11.8577H2.13193L4.23571 16.16L6.21284 11.8577H8.34477L5.16095 18.3497V22.6204H3.18382V18.3041H3.18734Z" fill="white"/>
<path d="M11.117 11.8577V18.827C11.117 20.6167 11.6587 21.2027 12.8162 21.2027C13.9736 21.2027 14.5013 20.6167 14.5013 18.827V11.8577H16.482V18.827C16.482 21.6659 14.8426 22.7748 12.8162 22.7748C10.7898 22.7748 9.13632 21.6659 9.13632 18.827V11.8577H11.117Z" fill="white"/>
<path d="M21.3474 11.8577V19.4762C21.3474 21.8203 20.0985 22.7783 18.6596 22.7783C18.1917 22.7783 17.5901 22.6695 17.2383 22.5151V20.8202C17.4705 20.9149 17.7344 21.0202 18.1495 21.0202C19.1099 21.0202 19.3703 20.3114 19.3703 19.4621V11.8612H21.3474V11.8577Z" fill="white"/>
<path d="M23.7291 11.8577H25.7063V22.6204H23.7291V11.8577Z" fill="white"/>
<path d="M28.0493 11.8577H30.3993L33.9842 20.3078H34.0158V11.8577H35.8065V22.6204H33.4459L29.8716 14.2334H29.8435V22.6204H28.0493V11.8577Z" fill="white"/>
<path d="M61.9701 11.8577H64.7423C65.8857 11.8577 66.5224 12.1349 67.015 12.5981C67.5708 13.1245 67.8206 13.8614 67.8206 14.651C67.8206 15.7915 67.2788 16.8899 65.6887 17.2268V17.2583C66.3395 17.3812 66.6456 17.69 66.8637 18.3076L68.3799 22.6309H66.9094L65.6711 18.9884C65.3615 18.0935 64.9745 17.7531 63.9543 17.7531H63.3351V22.6309H61.9736V11.8577H61.9701ZM63.3316 16.6407H64.3835C65.8399 16.6407 66.3958 15.6827 66.3958 14.7422C66.3958 13.5386 65.6042 12.9666 64.4186 12.9666H63.3351V16.6407H63.3316Z" fill="white"/>
<path d="M73.2172 11.7488C75.613 11.7488 77.1469 13.8017 77.1469 17.1354C77.1469 20.8552 75.6447 22.7396 73.0941 22.7396C70.6948 22.7396 69.1645 20.6867 69.1645 17.353C69.1645 13.6332 70.6631 11.7488 73.2172 11.7488ZM73.0906 21.6272C74.5154 21.6272 75.7185 20.4551 75.7185 17.1354C75.7185 14.9597 75.0396 12.8612 73.2137 12.8612C71.7889 12.8612 70.5857 14.0333 70.5857 17.353C70.5857 19.5287 71.2647 21.6272 73.0906 21.6272Z" fill="white"/>
<path d="M78.6948 11.8575H81.4354C83.5251 11.8575 84.4398 12.998 84.4398 14.5877C84.4398 15.7598 83.7432 16.6722 82.6596 16.9775V17.009C83.8347 17.1775 84.672 18.1671 84.672 19.6795C84.672 21.192 83.6517 22.6273 81.2982 22.6273H78.6983V11.854L78.6948 11.8575ZM80.0563 16.5177H80.8584C82.3747 16.5177 83.0713 15.8229 83.0713 14.6649C83.0713 13.7385 82.5154 12.9664 81.0906 12.9664H80.0563V16.5177ZM80.0563 21.5184H81.2173C82.6702 21.5184 83.307 20.6095 83.307 19.5883C83.307 18.4794 82.6878 17.6267 81.372 17.6267H80.0563V21.5149V21.5184Z" fill="white"/>
<path d="M89.942 11.7488C92.3377 11.7488 93.8716 13.8017 93.8716 17.1354C93.8716 20.8552 92.3729 22.7396 89.8224 22.7396C87.4231 22.7396 85.8892 20.6867 85.8892 17.353C85.8892 13.6332 87.3914 11.7488 89.942 11.7488ZM89.8188 21.6272C91.2401 21.6272 92.4468 20.4551 92.4468 17.1354C92.4468 14.9597 91.7643 12.8612 89.9384 12.8612C88.5136 12.8612 87.307 14.0333 87.307 17.353C87.307 19.5287 87.9895 21.6272 89.8188 21.6272Z" fill="white"/>
<path d="M96.1654 13.0297H93.6887V11.8577H100V13.0297H97.5233V22.6309H96.1618V13.0297H96.1654Z" fill="white"/>
</g>
<defs>
<clipPath id="clip0_52775_53378">
<rect width="100" height="28" fill="white"/>
</clipPath>
</defs>
</svg>
