<svg width="20" height="20" viewBox="0 0 20 20" fill="none" xmlns="http://www.w3.org/2000/svg">
<g clip-path="url(#clip0_225_8)">
<path d="M0.302094 0.362534L19.6979 3.58509V16.4149L0.302094 19.6375V0.362534Z" fill="#646464" fill-opacity="0.05"/>
<path d="M0.60423 0.704935L19.3958 3.84693V16.1531L0.60423 19.2951V0.704935ZM0 0V20L20 16.6566V3.3434L0 0Z" fill="#515151" fill-opacity="0.5"/>
<path fill-rule="evenodd" clip-rule="evenodd" d="M10.0101 6.98893C10.2882 6.98893 10.5136 7.21437 10.5136 7.49246V9.50655H12.5277C12.8058 9.50655 13.0312 9.73198 13.0312 10.0101C13.0312 10.2882 12.8058 10.5136 12.5277 10.5136H10.5136V12.5277C10.5136 12.8058 10.2882 13.0312 10.0101 13.0312C9.73201 13.0312 9.50658 12.8058 9.50658 12.5277V10.5136H7.49246C7.21437 10.5136 6.98893 10.2882 6.98893 10.0101C6.98893 9.73198 7.21437 9.50655 7.49246 9.50655H9.50658V7.49246C9.50658 7.21437 9.73201 6.98893 10.0101 6.98893Z" fill="#515151" fill-opacity="0.5"/>
</g>
<defs>
<clipPath id="clip0_225_8">
<rect width="20" height="20" fill="white"/>
</clipPath>
</defs>
</svg>
