<svg width="30" height="30" viewBox="0 0 30 30" fill="none" xmlns="http://www.w3.org/2000/svg">
<path d="M23.0169 6.9834H6.9668V23.0334H23.0169V6.9834Z" fill="#F4F5F5"/>
<path d="M22.7836 7.2168V22.7835H7.2168V7.2168H22.7836ZM23.2836 6.7168H6.7168V23.2835H23.2836V6.7168Z" fill="#646464"/>
<path d="M8.36652 21.7998H5.4165V24.7498H8.36652V21.7998Z" fill="#F4F5F5"/>
<path d="M8.11701 22.0498V24.4998H5.667V22.0498H8.11701ZM8.61701 21.5498H5.16699V24.9998H8.61701V21.5498Z" fill="#646464"/>
<path d="M24.7498 21.7998H21.7998V24.7498H24.7498V21.7998Z" fill="#F4F5F5"/>
<path d="M24.4998 22.0498V24.4998H22.0498V22.0498H24.4998ZM24.9998 21.5498H21.5498V24.9998H24.9998V21.5498Z" fill="#646464"/>
<path d="M8.20002 5.25H5.25V8.2H8.20002V5.25Z" fill="#F4F5F5"/>
<path d="M7.95002 5.5V7.95H5.5V5.5H7.95002ZM8.45002 5H5V8.45H8.45002V5Z" fill="#646464"/>
<path d="M24.7498 5.25H21.7998V8.2H24.7498V5.25Z" fill="#F4F5F5"/>
<path d="M24.4998 5.5V7.95H22.0498V5.5H24.4998ZM24.9998 5H21.5498V8.45H24.9998V5Z" fill="#646464"/>
<path d="M24 30L30 24V30H24Z" fill="#646464"/>
</svg>
