<svg width="30" height="30" viewBox="0 0 30 30" fill="none" xmlns="http://www.w3.org/2000/svg">
<path d="M5 5V6.15L6.15 5H5Z" fill="#515151" fill-opacity="0.1"/>
<path d="M6.15 5L5 6.15V8.5L8.5 5H6.15Z" fill="#FFB100" fill-opacity="0.1"/>
<path d="M8.5 5L5 8.5V10.85L10.85 5H8.5Z" fill="#515151" fill-opacity="0.1"/>
<path d="M10.85 5L5 10.85V13.2167L13.2167 5H10.85Z" fill="#FFB100" fill-opacity="0.1"/>
<path d="M13.2167 5L5 13.2167V15.5667L15.5667 5H13.2167Z" fill="#515151" fill-opacity="0.1"/>
<path d="M15.5667 5L5 15.5667V17.9333L17.9333 5H15.5667Z" fill="#FFB100" fill-opacity="0.1"/>
<path d="M17.9333 5L5 17.9333V20.2833L20.2833 5H17.9333Z" fill="#515151" fill-opacity="0.1"/>
<path d="M20.2833 5L5 20.2833V22.65L22.65 5H20.2833Z" fill="#FFB100" fill-opacity="0.1"/>
<path d="M22.65 5L5 22.65V25L25 5H22.65Z" fill="#515151" fill-opacity="0.1"/>
<path d="M25 5L5 25H7.35L25 7.35V5Z" fill="#FFB100" fill-opacity="0.1"/>
<path d="M24.9996 7.3501L7.34961 25.0001H9.71628L24.9996 9.71676V7.3501Z" fill="#515151" fill-opacity="0.1"/>
<path d="M25.0001 9.7168L9.7168 25.0001H12.0668L25.0001 12.0668V9.7168Z" fill="#FFB100" fill-opacity="0.1"/>
<path d="M24.9997 12.0664L12.0664 24.9997H14.4331L24.9997 14.4331V12.0664Z" fill="#515151" fill-opacity="0.1"/>
<path d="M25.0003 14.4336L14.4336 25.0003H16.7836L25.0003 16.7836V14.4336Z" fill="#FFB100" fill-opacity="0.1"/>
<path d="M24.9999 16.7832L16.7832 24.9999H19.1499L24.9999 19.1499V16.7832Z" fill="#515151" fill-opacity="0.1"/>
<path d="M25.0004 19.1499L19.1504 24.9999H21.5004L25.0004 21.4999V19.1499Z" fill="#FFB100" fill-opacity="0.1"/>
<path d="M21.5 25H23.85L25 23.85V21.5L21.5 25Z" fill="#515151" fill-opacity="0.1"/>
<path d="M24.9996 25.0001V23.8501L23.8496 25.0001H24.9996Z" fill="#FFB100" fill-opacity="0.1"/>
<rect x="5.25" y="5.25" width="19.5" height="19.5" stroke="#515151" stroke-opacity="0.5" stroke-width="0.5"/>
</svg>
